<svg xmlns="http://www.w3.org/2000/svg" viewBox="0 0 203.46 210.9"><defs><style>.cls-1{fill:#ffa81d;}.cls-2{fill:#ffd522;}.cls-3{fill:#ffb311;}.cls-4{fill:#fbeb96;}.cls-5{fill:#d86c0b;}.cls-6{fill:#ffa70b;}.cls-7{fill:#ffbe16;}</style></defs><g id="Objects"><path class="cls-1" d="M108.24,16.87A101.73,101.73,0,1,0,210.4,118.17,101.74,101.74,0,0,0,108.24,16.87Z" transform="translate(-6.94 -9.43)"/><path class="cls-2" d="M208.26,90.35a100.45,100.45,0,0,0-7.56-22.6,102.39,102.39,0,0,0-37.64-42.58q-2.22-1.4-4.53-2.7a100.87,100.87,0,0,0-22.73-9.38c-2.69-.74-5.43-1.38-8.2-1.89S122,10.25,119.12,10a100.23,100.23,0,0,0-10.88-.53,103.53,103.53,0,0,0-11.34.67q-4.2.48-8.3,1.31A101.8,101.8,0,0,0,8.93,91.09q-.84,4.09-1.3,8.29a98.51,98.51,0,0,0-.69,12.21c0,3.39.19,6.73.54,10q.43,4.29,1.23,8.46t1.9,8.19h0A100.67,100.67,0,0,0,20,161c.87,1.53,1.76,3,2.7,4.52a102.43,102.43,0,0,0,42.57,37.64,99.91,99.91,0,0,0,22.59,7.58,103,103,0,0,0,33.74,1.32,100.4,100.4,0,0,0,15.33-3.17,101.93,101.93,0,0,0,69.5-69.49,100.18,100.18,0,0,0,3.16-15.33,102.22,102.22,0,0,0-1.32-33.74Z" transform="translate(-6.94 -9.43)"/><path class="cls-3" d="M180.86,39.49,37,183.34A101.16,101.16,0,0,1,20,161L158.53,22.47A102.07,102.07,0,0,1,180.86,39.49Z" transform="translate(-6.94 -9.43)"/><path class="cls-4" d="M163.06,25.17,22.69,165.54c-.94-1.48-1.83-3-2.7-4.52a100.67,100.67,0,0,1-9.38-22.73h0L135.8,13.09a100.87,100.87,0,0,1,22.73,9.38Q160.84,23.78,163.06,25.17Z" transform="translate(-6.94 -9.43)"/><path class="cls-4" d="M208.26,90.35,87.85,210.76a99.91,99.91,0,0,1-22.59-7.58L200.7,67.75A100.45,100.45,0,0,1,208.26,90.35Z" transform="translate(-6.94 -9.43)"/><path class="cls-4" d="M127.6,11.2,8.71,130.09q-.8-4.17-1.23-8.46L119.12,10C122,10.25,124.82,10.67,127.6,11.2Z" transform="translate(-6.94 -9.43)"/><path class="cls-5" d="M184.48,111.17a75.79,75.79,0,0,1-70.73,75.62c-1.67.11-3.38.17-5.09.17a75.8,75.8,0,0,1,0-151.6c1.71,0,3.42.06,5.09.17A75.8,75.8,0,0,1,184.48,111.17Z" transform="translate(-6.94 -9.43)"/><path class="cls-6" d="M181.1,111.17c0,1.29,0,2.58-.11,3.86a72.39,72.39,0,0,1-67.47,68.39l-1,.07c-1.28.07-2.56.11-3.86.11a72.34,72.34,0,0,1-72.16-66.22c-.18-2-.27-4.11-.27-6.21,0-1.92.07-3.82.22-5.7A72.38,72.38,0,0,1,103,39c1.88-.15,3.78-.22,5.7-.22,1.63,0,3.26.06,4.85.16.46,0,.91.06,1.36.12a71.82,71.82,0,0,1,30,9.38,72.25,72.25,0,0,1,36.27,62.78Z" transform="translate(-6.94 -9.43)"/><path class="cls-7" d="M103,39,36.46,105.47A71.87,71.87,0,0,1,38.3,93.92L91.43,40.8A71.76,71.76,0,0,1,103,39Z" transform="translate(-6.94 -9.43)"/><path class="cls-7" d="M144.83,48.39l-98.94,99a71.91,71.91,0,0,1-9.38-30L114.88,39A71.82,71.82,0,0,1,144.83,48.39Z" transform="translate(-6.94 -9.43)"/><path class="cls-7" d="M181.1,111.17c0,1.29,0,2.58-.11,3.86l-68.46,68.46c-1.28.07-2.56.11-3.86.11A72.25,72.25,0,0,1,85.91,180L177.46,88.4A72.64,72.64,0,0,1,181.1,111.17Z" transform="translate(-6.94 -9.43)"/><path class="cls-5" d="M119.42,158.18v13H103.74l-4.23-4.24,4.23-8.74c-12.19-1.59-24.38-7.6-27.23-23.43l14.61-9.31,4.23,4.24c1,6.65,6,13.14,16.63,13.14,7.44,0,12.66-3.33,12.66-10.13,0-10.14-11.24-11.09-23.11-14.25-11.56-3-23.59-8.24-23.59-25.65C77.94,77.91,87.12,69,102.48,67L98.24,49.76h15.67L118.15,54V67.14c13.93,1.9,22.8,9.18,26,21.37l-18.05,4.91-4.24-4.24,2.38-.65c-2.45-4-7-6.35-14-6.35-9,0-12.83,4.28-12.83,9.66,0,7.91,6.81,9.66,18.84,12.66,12.51,3.17,28.82,7.45,28.82,27.08C145.07,147.09,134.78,156,119.42,158.18Z" transform="translate(-6.94 -9.43)"/><path class="cls-2" d="M112,100.26c-8.42-2.1-14.29-3.58-17-7a8.6,8.6,0,0,1-1.8-5.65c0-5.38,3.8-9.66,12.83-9.66a26.2,26.2,0,0,1,4,.29c6.91,1.07,10.61,5,11.83,11l18-4.9C137.47,75,131.77,68.57,123,65.18a40.13,40.13,0,0,0-9.13-2.28V49.76H98.24v13c-15.36,2-24.54,10.92-24.54,25.8,0,8.8,3.07,14.5,7.61,18.36s10.27,5.81,16,7.29c11.88,3.16,23.11,4.12,23.11,14.25,0,6.8-5.22,10.13-12.66,10.13-10.61,0-15.68-6.49-16.62-13.14l-18.84,5.07c2.85,15.83,15,21.85,27.23,23.43v13h15.67v-13c15.27-2.2,25.53-11,25.64-26.32a2.44,2.44,0,0,0,0-.27C140.83,107.71,124.52,103.44,112,100.26Z" transform="translate(-6.94 -9.43)"/><path class="cls-4" d="M123,65.18l-13,13a26.2,26.2,0,0,0-4-.29c-9,0-12.83,4.28-12.83,9.66A8.6,8.6,0,0,0,95,93.25L81.31,106.91c-4.54-3.86-7.61-9.56-7.61-18.36,0-14.88,9.18-23.75,24.54-25.8V50.65l.88-.89h14.79V62.9A40.13,40.13,0,0,1,123,65.18Z" transform="translate(-6.94 -9.43)"/><path class="cls-4" d="M140.82,127.62c-.11,15.34-10.37,24.12-25.64,26.32v13H101.52Z" transform="translate(-6.94 -9.43)"/></g></svg>