<?xml version="1.0" encoding="utf-8"?>
<!-- Generator: Adobe Illustrator 16.0.0, SVG Export Plug-In . SVG Version: 6.00 Build 0)  -->
<!DOCTYPE svg PUBLIC "-//W3C//DTD SVG 1.1//EN" "http://www.w3.org/Graphics/SVG/1.1/DTD/svg11.dtd">
<svg version="1.1" id="Background" xmlns="http://www.w3.org/2000/svg" xmlns:xlink="http://www.w3.org/1999/xlink" x="0px" y="0px"
	 width="800px" height="800px" viewBox="0 0 800 800" enable-background="new 0 0 800 800" xml:space="preserve">
<rect x="0" fill="none" width="799.999" height="800"/>
<g>
	<ellipse fill="#3AAA35" stroke="#1BA63C" stroke-width="60" stroke-miterlimit="10" cx="383.33" cy="365.98" rx="191" ry="235.5"/>
</g>
<g opacity="0.5">
	<path fill="#FFFBCC" d="M472.667,336.955c5.361,5.972,8.963,13.749,4.836,21.45c-2.982,5.561-8.639,9.411-14.15,12.153
		c-12.947,6.44-27.66,9.115-42.041,8.647c-0.018,0-0.027,0.009-0.037,0.009c-0.23-0.85-0.459-1.71-0.678-2.561
		c10.318,1.701,20.58-0.946,30.211-4.72c6.984-2.742,15.115-6.058,18.889-13.013c3.545-6.516,1.605-14.293-2.703-19.959
		c-5.59-7.366-14.867-10.768-23.285-13.739c-1.021-0.354-1.443,1.251-0.439,1.615c7.318,2.666,15.182,5.322,20.732,11.074
		c6.277,6.506,8.514,16.701,1.854,23.771c-5.178,5.494-13.471,8.456-20.418,10.834c-8.168,2.8-16.5,4.147-25.09,3.201
		c-0.189-0.736-0.391-1.462-0.582-2.198c8.273-0.086,16.434-1.777,24.172-4.768c5.313-2.044,11.686-4.72,13.74-10.491
		c0.229-0.659-0.754-1.022-1.1-0.459c-7.012,11.313-24.66,13.807-37.033,14.905c-0.295-1.118-0.592-2.226-0.879-3.344
		c9.803-0.201,24.68-6.535,18.891-18.469c-5.342-11.007-21.584-15.172-32.6-16.118c-0.211-0.02-0.25,0.315-0.049,0.363
		c9.201,2.255,19.73,4.319,27.088,10.73c5.102,4.452,8.178,11.895,1.949,16.921c-4.262,3.439-10.301,5.006-15.67,5.073
		c-0.326-1.261-0.66-2.513-0.965-3.784c1.738-0.315,3.363-1.194,4.441-2.656c0.373-0.506-0.439-1.099-0.859-0.668
		c-1.117,1.146-2.33,2.025-3.793,2.494c-1.51-6.096-2.885-12.21-3.984-18.383c-0.057-0.315-0.238-0.497-0.459-0.564l0.039-0.105
		c5.418,1.787,10.645,4.968,11.465,10.797c0.096,0.649,1.156,0.487,1.137-0.153c-0.189-6.019-5.914-9.43-10.977-11.379
		c-8.018-3.096-16.825-3.105-25.282-2.57c-8.303,0.535-16.93,1.175-24.85,3.937c-5.771,2.016-13.09,5.417-14.543,11.943
		c-0.105,0.516,0.611,0.707,0.783,0.22c1.836-5.398,7.271-8.589,12.707-10.558c-0.076,6.507-0.896,12.793-2.234,18.937
		c0-0.153-0.096-0.315-0.287-0.373c-1.299-0.401-2.531-0.344-3.773-1.032c-1.252-0.688-2.266-1.72-2.99-2.952
		c-0.287-0.487-0.967-0.057-0.746,0.439c0.66,1.491,1.721,2.713,3.152,3.507c1.205,0.668,2.992,1.347,4.357,0.85
		c0.152-0.057,0.229-0.182,0.268-0.315c-0.41,1.892-0.889,3.765-1.395,5.637c-10.902,0.64-33.002-7.491-21.23-21.688
		c7.73-9.325,22.318-11.551,33.459-13.825c0.439-0.096,0.346-0.803-0.104-0.774c-7.922,0.382-15.994,2.99-23.17,6.258
		c-6.029,2.761-12.604,6.669-14.207,13.625c-2.963,12.889,15.277,18.354,25.041,17.198c-0.152,0.564-0.334,1.127-0.496,1.691
		c-17.055-0.268-50.143-3.22-46.178-27.813c0.096-0.564-0.639-0.765-0.85-0.239c-3.584,8.981,3.582,18.23,11.092,22.367
		c10.416,5.723,24.059,7.204,35.744,6.363c-0.592,2.016-1.213,4.013-1.893,6c-23.428,0.516-55.225-0.105-67.396-24.526
		c-3.029-6.077-3.697-13.128-0.238-19.176c2.895-5.092,8.148-8.513,13.166-11.236c10.682-5.799,22.299-10.089,34.004-13.3
		c23.619-6.468,48.508-7.892,72.708-4.194C431.669,311.339,456.835,319.317,472.667,336.955z M459.339,354.258
		c0.039,0.879,1.395,0.889,1.377,0c-0.211-11.848-14.381-17.494-23.553-21.364c-13.117-5.542-27.105-8.943-41.274-10.233
		c-27.756-2.522-57.412,2.952-81.348,17.58c-0.363,0.22-0.047,0.745,0.326,0.554c23.293-12,48.545-18.373,74.85-17.055
		c12.802,0.64,25.499,2.962,37.653,7.061c6.287,2.111,12.42,4.682,18.297,7.749C451.981,341.837,458.938,346.433,459.339,354.258z
		 M433.724,323.521c0.84,0.344,1.461-1.118,0.621-1.481c-27.355-11.79-58.187-12.172-86.964-5.866
		c-13.549,2.971-28.645,6.793-40.588,14.121c-9.869,6.048-13.635,15.727-7.52,26.122c6.813,11.58,20.752,19.797,34.281,19.119
		c0.363-0.019,0.344-0.516,0-0.554c-8.168-0.87-15.85-3.029-22.566-7.911c-6.449-4.672-13.482-12.488-13.549-20.886
		c-0.066-8.608,7.92-13.921,14.857-17.188c7.414-3.487,15.41-6.048,23.273-8.303C367.836,311.435,402.337,310.651,433.724,323.521z
		 M396.004,333.917c0.391-0.067,0.285-0.66-0.086-0.669c-4.387-0.077-8.867,0.669-13.215,1.223c-0.344,0.048-0.363,0.574,0,0.555
		C387.107,334.824,391.676,334.767,396.004,333.917z M357.432,377.083c0.383-0.067,0.277-0.65-0.086-0.65
		c-4.596-0.095-9.162,0.163-13.768-0.029c-0.727-0.028-0.717,1.099,0,1.137C348.164,377.781,352.902,377.886,357.432,377.083z"/>
	<path fill="#FFFBCC" d="M428.794,418.416c3.631,20.39,7.51,53.247-14.467,65.171c-11.273,6.105-25.911,7.204-38.483,6.469
		c-11.543-0.679-26.219-2.838-34.998-11.131c-9.316-8.781-8.018-23.467-5.686-34.855c2.178-10.624,6.049-20.8,10.213-30.784
		c3.795-9.087,8.084-18.335,11.648-27.784c0.486-0.191,0.639-0.784,0.43-1.156c4.566-12.373,7.805-25.109,6.955-38.352
		c1.357-0.449,2.695-0.822,3.955-1.146c6.479-1.644,13.215-2.198,19.873-2.637c6.297-0.43,12.736-0.611,18.956,0.583
		c1.74,0.334,3.631,0.783,5.504,1.404l-0.039,0.105c-0.525-0.172-1.279,0.268-1.156,1.013
		C415.847,370.013,424.399,393.728,428.794,418.416z"/>
	<path fill="#1D1D1B" d="M491.356,321.534c1.357,9.325,2.895,19.243,0.172,28.463c-2.379,8.054-7.701,14.953-14.18,20.179
		c-15.238,12.297-35.389,14.37-54.24,15.841c4.367,16.224,8.475,32.485,9.717,49.301c0.842,11.361,0.736,23.563-3.773,34.234
		c-4.156,9.851-12.059,15.994-22.215,19.032c-12.161,3.64-25.405,4.3-37.95,2.646c-10.404-1.366-22.893-3.937-30.354-12.02
		c-7.156-7.759-7.566-19.08-6.268-28.979c1.576-11.991,5.607-23.476,10.186-34.616c4.088-9.984,8.551-19.797,12.277-29.791
		c-18.957,2.207-40.072,0.602-56.363-10.032c-16.529-10.796-24.842-30.145-24.803-49.511c0.076-37.702,29.074-72.967,60.117-91.503
		c31.061-18.536,70.071-22.119,102.729-5.379C471.235,247.257,486.015,284.759,491.356,321.534z M481.677,363.487
		c14.887-16.758,8.896-41.409,4.07-61.158c-4.223-17.293-11.092-34.291-22.357-48.231c-10.844-13.424-25.529-23.188-41.924-28.481
		c-33.202-10.711-68.782-2.781-96.604,17.522c-28.426,20.733-54.518,57.155-48.432,94.035c2.914,17.666,13.299,33.03,29.695,40.702
		c15.373,7.194,32.59,7.529,49.225,6.287c0.324-0.917,0.648-1.834,0.975-2.751c-15.451,1.204-31.779,0.736-46.158-5.551
		c-11.58-5.054-23.648-15.077-24.984-28.501c-1.156-11.666,8.102-19.186,17.426-24.106c12.201-6.449,25.35-11.246,38.754-14.465
		c27-6.497,55.635-6.66,82.599,0.115c12.869,3.229,25.51,8.121,36.545,15.574c8.752,5.905,20.676,15.039,20.629,26.781
		c-0.049,10.987-10.721,18.153-19.684,22.119c-12.496,5.532-26.074,7.987-39.707,7.586c0.305,1.108,0.602,2.226,0.906,3.334
		C443.479,382.376,466.868,380.16,481.677,363.487z M477.503,358.404c4.127-7.701,0.525-15.478-4.836-21.45
		c-15.832-17.638-40.998-25.616-63.729-29.093c-24.2-3.698-49.089-2.274-72.708,4.194c-11.705,3.21-23.322,7.5-34.004,13.3
		c-5.018,2.723-10.271,6.144-13.166,11.236c-3.459,6.048-2.791,13.1,0.238,19.176c12.172,24.421,43.969,25.042,67.396,24.526
		c0.68-1.987,1.301-3.984,1.893-6c-11.686,0.841-25.328-0.64-35.744-6.363c-7.51-4.137-14.676-13.386-11.092-22.367
		c0.211-0.525,0.945-0.325,0.85,0.239c-3.965,24.593,29.123,27.545,46.178,27.813c0.162-0.564,0.344-1.127,0.496-1.691
		c-9.764,1.156-28.004-4.309-25.041-17.198c1.604-6.956,8.178-10.864,14.207-13.625c7.176-3.268,15.248-5.876,23.17-6.258
		c0.449-0.029,0.543,0.678,0.104,0.774c-11.141,2.274-25.729,4.5-33.459,13.825c-11.771,14.198,10.328,22.329,21.23,21.688
		c0.506-1.873,0.984-3.745,1.395-5.637l0.02-0.124c1.338-6.144,2.158-12.43,2.234-18.937c-5.436,1.968-10.871,5.16-12.707,10.558
		c-0.172,0.487-0.889,0.296-0.783-0.22c1.453-6.526,8.771-9.927,14.543-11.943c7.92-2.761,16.547-3.401,24.85-3.937
		c8.457-0.535,17.265-0.525,25.282,2.57c5.063,1.949,10.787,5.36,10.977,11.379c0.02,0.641-1.041,0.803-1.137,0.153
		c-0.82-5.829-6.047-9.01-11.465-10.797c-1.873-0.621-3.764-1.07-5.504-1.404c-6.22-1.194-12.659-1.013-18.956-0.583
		c-6.658,0.439-13.395,0.994-19.873,2.637c-1.26,0.325-2.598,0.697-3.955,1.146c0.85,13.243-2.389,25.979-6.955,38.352
		c0.209,0.373,0.057,0.965-0.43,1.156c-3.564,9.449-7.854,18.697-11.648,27.784c-4.164,9.984-8.035,20.16-10.213,30.784
		c-2.332,11.389-3.631,26.074,5.686,34.855c8.779,8.293,23.455,10.452,34.998,11.131c12.572,0.735,27.21-0.363,38.483-6.469
		c21.977-11.924,18.098-44.781,14.467-65.171c-4.395-24.688-12.947-48.403-17.295-73.101c-0.123-0.746,0.631-1.185,1.156-1.013
		c0.221,0.067,0.402,0.249,0.459,0.564c1.1,6.172,2.475,12.287,3.984,18.383c1.463-0.468,2.676-1.347,3.793-2.494
		c0.42-0.43,1.232,0.163,0.859,0.668c-1.078,1.462-2.703,2.341-4.441,2.656c0.305,1.271,0.639,2.522,0.965,3.784
		c5.369-0.067,11.408-1.634,15.67-5.073c6.229-5.026,3.152-12.469-1.949-16.921c-7.357-6.411-17.887-8.475-27.088-10.73
		c-0.201-0.048-0.162-0.382,0.049-0.363c11.016,0.946,27.258,5.111,32.6,16.118c5.789,11.934-9.088,18.268-18.891,18.469
		c0.287,1.118,0.584,2.226,0.879,3.344c12.373-1.099,30.021-3.593,37.033-14.905c0.346-0.563,1.328-0.2,1.1,0.459
		c-2.055,5.771-8.428,8.446-13.74,10.491c-7.738,2.991-15.898,4.682-24.172,4.768c0.191,0.736,0.393,1.462,0.582,2.198
		c8.59,0.946,16.922-0.401,25.09-3.201c6.947-2.379,15.24-5.341,20.418-10.834c6.66-7.07,4.424-17.265-1.854-23.771
		c-5.551-5.752-13.414-8.408-20.732-11.074c-1.004-0.363-0.582-1.968,0.439-1.615c8.418,2.972,17.695,6.373,23.285,13.739
		c4.309,5.666,6.248,13.443,2.703,19.959c-3.773,6.956-11.904,10.271-18.889,13.013c-9.631,3.774-19.893,6.42-30.211,4.72
		c0.219,0.851,0.447,1.71,0.678,2.561c0.01,0,0.02-0.009,0.037-0.009c14.381,0.468,29.094-2.207,42.041-8.647
		C468.864,367.815,474.521,363.965,477.503,358.404z"/>
	<path fill="#C96979" d="M485.747,302.329c4.826,19.749,10.816,44.4-4.07,61.158c-14.809,16.672-38.197,18.889-59.027,20.81
		c-0.305-1.108-0.602-2.226-0.906-3.334c13.633,0.401,27.211-2.054,39.707-7.586c8.963-3.965,19.635-11.131,19.684-22.119
		c0.047-11.743-11.877-20.876-20.629-26.781c-11.035-7.453-23.676-12.344-36.545-15.574c-26.964-6.774-55.599-6.612-82.599-0.115
		c-13.404,3.22-26.553,8.016-38.754,14.465c-9.324,4.92-18.582,12.44-17.426,24.106c1.336,13.424,13.404,23.447,24.984,28.501
		c14.379,6.287,30.707,6.755,46.158,5.551c-0.326,0.917-0.65,1.834-0.975,2.751c-16.635,1.242-33.852,0.908-49.225-6.287
		c-16.396-7.672-26.781-23.036-29.695-40.702c-6.086-36.88,20.006-73.302,48.432-94.035c27.822-20.303,63.402-28.233,96.604-17.522
		c16.395,5.293,31.08,15.058,41.924,28.481C474.655,268.038,481.524,285.036,485.747,302.329z"/>
	<path fill="#1D1D1B" d="M460.716,354.258c0.018,0.889-1.338,0.879-1.377,0c-0.4-7.825-7.357-12.421-13.672-15.708
		c-5.877-3.067-12.01-5.637-18.297-7.749c-12.154-4.099-24.852-6.421-37.653-7.061c-26.305-1.318-51.557,5.054-74.85,17.055
		c-0.373,0.191-0.689-0.334-0.326-0.554c23.936-14.628,53.592-20.103,81.348-17.58c14.169,1.29,28.157,4.691,41.274,10.233
		C446.335,336.764,460.505,342.41,460.716,354.258z"/>
	<path fill="#1D1D1B" d="M434.345,322.04c0.84,0.363,0.219,1.825-0.621,1.481c-31.387-12.87-65.888-12.086-98.153-2.828
		c-7.863,2.255-15.859,4.815-23.273,8.303c-6.938,3.268-14.924,8.58-14.857,17.188c0.066,8.398,7.1,16.214,13.549,20.886
		c6.717,4.882,14.398,7.042,22.566,7.911c0.344,0.038,0.363,0.535,0,0.554c-13.529,0.678-27.469-7.539-34.281-19.119
		c-6.115-10.395-2.35-20.074,7.52-26.122c11.943-7.328,27.039-11.15,40.588-14.121C376.158,309.868,406.989,310.25,434.345,322.04z"
		/>
	<path fill="#1D1D1B" d="M395.918,333.248c0.371,0.009,0.477,0.602,0.086,0.669c-4.328,0.85-8.896,0.907-13.301,1.108
		c-0.363,0.019-0.344-0.507,0-0.555C387.051,333.917,391.531,333.171,395.918,333.248z"/>
	<path fill="#1D1D1B" d="M360.9,365.37l-0.02,0.124c-0.039,0.134-0.115,0.258-0.268,0.315c-1.365,0.497-3.152-0.182-4.357-0.85
		c-1.432-0.793-2.492-2.016-3.152-3.507c-0.221-0.497,0.459-0.927,0.746-0.439c0.725,1.232,1.738,2.265,2.99,2.952
		c1.242,0.688,2.475,0.631,3.773,1.032C360.805,365.054,360.9,365.217,360.9,365.37z"/>
	<path fill="#1D1D1B" d="M357.346,376.434c0.363,0,0.469,0.583,0.086,0.65c-4.529,0.802-9.268,0.697-13.854,0.458
		c-0.717-0.038-0.727-1.166,0-1.137C348.184,376.596,352.75,376.338,357.346,376.434z"/>
	
		<ellipse transform="matrix(0.9392 -0.3434 0.3434 0.9392 -74.2183 135.2399)" fill="#6AC689" cx="344.69" cy="277.147" rx="14.328" ry="9.5"/>
	<ellipse fill="#6AC689" cx="431.608" cy="263.4" rx="14.328" ry="9.5"/>
	<ellipse fill="#6AC689" cx="375.016" cy="244.591" rx="14.328" ry="9.5"/>
	
		<ellipse transform="matrix(0.1481 0.989 -0.989 0.1481 695.4076 -211.285)" fill="#6AC689" cx="470.349" cy="298.023" rx="14.328" ry="9.5"/>
	
		<ellipse transform="matrix(0.7586 0.6516 -0.6516 0.7586 285.6198 -190.6201)" fill="#6AC689" cx="400.059" cy="290.144" rx="14.328" ry="9.5"/>
	<ellipse fill="#6AC689" cx="310.64" cy="302.78" rx="14.328" ry="9.5"/>
</g>
</svg>
